<?xml version="1.0" encoding="iso-8859-1"?>
<!-- Generator: Adobe Illustrator 16.0.0, SVG Export Plug-In . SVG Version: 6.00 Build 0)  -->
<!DOCTYPE svg PUBLIC "-//W3C//DTD SVG 1.1//EN" "http://www.w3.org/Graphics/SVG/1.1/DTD/svg11.dtd">
<svg version="1.1" id="Capa_1" xmlns="http://www.w3.org/2000/svg" xmlns:xlink="http://www.w3.org/1999/xlink" x="0px" y="0px"
	 width="307.499px" height="307.499px" viewBox="0 0 307.499 307.499" style="enable-background:new 0 0 307.499 307.499;"
	 xml:space="preserve">
<g>
	<g>
		<g>
			<path d="M256.326,115.062c-4.188-3.025-7.624-16.829-8.391-20.122c-0.223-0.515-0.438-1.374-0.958-3.441
				c-17.262-68.628-54.741-85.477-83.146-87.527c-49.185-2.492-82.485,41.854-96.727,60.8l-1.602,2.124
				c-5.439,7.193-13.716,13.255-15.622,12.84l-1.209-0.264l-0.536-2.421l1.03-0.799l2.344,3.083l-1.17-1.542l1.622-0.939
				c-0.535-0.91-1.629-1.134-2.333-0.823c0.959-0.428,7.409-4.36,12.792-11.469l1.593-2.117
				c14.609-19.431,48.819-64.93,100.066-62.338c29.718,2.141,68.833,19.575,86.663,90.453c0.301,1.191,0.608,2.421,0.738,2.803
				l0.117,0.176l0.071,0.322c1.499,6.504,4.638,16.411,6.93,18.062L256.326,115.062z"/>
		</g>
		<g>
			<path d="M63.534,220.08l-1.524-3.566c29.011-12.401,69.878-37.914,86.103-48.307c19.108-12.238,52.634-36.435,62.459-60.981
				c4.209-10.527,4.422-21.18,0.568-29.229c-3.34-6.981-9.486-11.883-18.264-14.568c-12.594-3.854-29.339,4.409-44.795,22.116
				c-0.221,0.253-26.619,28.125-54.791,45.371c-0.217,0.132-20.969,12.583-42.71,18.502l-1.016-3.738
				c21.206-5.771,41.512-17.949,41.712-18.073c27.975-17.128,53.662-44.356,53.882-44.609c16.49-18.89,34.75-27.589,48.849-23.274
				c9.712,2.977,16.845,8.718,20.622,16.599c4.319,9.022,4.148,20.812-0.472,32.341c-10.226,25.55-44.461,50.315-63.96,62.802
				C133.9,181.912,92.816,207.562,63.534,220.08z"/>
		</g>
		<g>
			<g>
				<path d="M53.155,113.568c6.531-1.966,12.422-5.368,18.317-8.718c5.288-3.003,10.537-5.712,15.396-9.409
					c9.118-6.935,16.922-15.201,24.135-24.051c13.95-17.125,32.712-33.083,54.831-37.688c1.735-0.365,3.494-0.613,5.261-0.796
					c2.457-0.255,2.48-4.13,0-3.872c-23.153,2.4-43.008,17.498-58.203,34.24c-3.077,3.39-5.842,7.029-8.814,10.506
					c-3.896,4.555-8.155,8.81-12.597,12.823c-4.524,4.086-9.35,7.895-14.646,10.934c-5.715,3.278-11.543,6.602-17.472,9.49
					c-2.337,1.138-4.751,2.067-7.24,2.813C49.738,110.552,50.754,114.291,53.155,113.568L53.155,113.568z"/>
			</g>
		</g>
		<g>
			<path d="M54.818,185.208l-1.362-3.628c0.048-0.017,0.181-0.064,0.405-0.144c14.291-4.904,87.644-32.281,128.451-89.486
				l3.155,2.253c-41.492,58.165-115.857,85.922-130.344,90.897L54.818,185.208z"/>
		</g>
		<g>
			<path d="M78.77,252.306l-1.008-3.743c9.1-2.45,27.795-14.771,45.871-26.689c18.976-12.508,36.901-24.321,45.033-25.728
				c9.328-1.619,23.12,8.206,37.712,18.6c11.409,8.127,23.209,16.535,33.291,19.896l-1.226,3.676
				c-10.636-3.549-22.675-12.121-34.317-20.417c-13.302-9.476-27.052-19.283-34.807-17.938c-7.334,1.27-25.75,13.408-43.556,25.143
				C107.432,237.194,88.473,249.691,78.77,252.306z"/>
		</g>
		<g>
			<path d="M103.89,282.469l-2.236-3.165c2.197-1.551,5.336-3.84,8.971-6.495c22.598-16.498,45.345-32.723,53.516-34.136
				c6.898-1.188,20.348,7.131,34.598,15.933c8.802,5.445,17.901,11.064,23.846,13.214l-1.32,3.645
				c-6.317-2.283-15.182-7.759-24.564-13.559c-12.402-7.666-26.464-16.352-31.898-15.414c-7.963,1.379-36.543,22.241-51.895,33.445
				C109.261,278.599,106.111,280.895,103.89,282.469z"/>
		</g>
		<g>
			<path d="M131.199,307.499l-2.782-2.7c0.851-0.88,20.983-21.566,31.768-23.429c8.562-1.471,16.967,4.535,27.631,12.143
				c3.429,2.439,6.967,4.973,10.865,7.512l-2.118,3.244c-3.963-2.584-7.536-5.137-10.999-7.604
				c-9.925-7.084-17.761-12.672-24.722-11.478C152.914,286.556,136.756,301.757,131.199,307.499z"/>
		</g>
		<g>
			<g>
				<path d="M227.505,133.785c1.198,7.721,4.572,14.633,10.349,19.95c5.476,5.048,12.416,8.142,19.199,10.999
					c2.299,0.965,3.299-2.782,1.033-3.737c-6.01-2.529-12.073-5.321-17.057-9.606c-5.626-4.832-8.664-11.385-9.787-18.632
					C230.859,130.291,227.122,131.338,227.505,133.785L227.505,133.785z"/>
			</g>
		</g>
		<g>
			<g>
				<path d="M201.832,162.892c4.955,12.45,14.363,22.121,25.55,29.232c5.585,3.556,11.776,6.721,18.131,8.672
					c2.396,0.729,3.415-3.012,1.033-3.74c-5.749-1.756-11.252-4.627-16.354-7.741c-10.633-6.495-19.961-15.722-24.622-27.449
					C204.659,159.569,200.908,160.568,201.832,162.892L201.832,162.892z"/>
			</g>
		</g>
	</g>
</g>
<g>
</g>
<g>
</g>
<g>
</g>
<g>
</g>
<g>
</g>
<g>
</g>
<g>
</g>
<g>
</g>
<g>
</g>
<g>
</g>
<g>
</g>
<g>
</g>
<g>
</g>
<g>
</g>
<g>
</g>
</svg>
